<?xml version="1.0" encoding="UTF-8"?><svg id="Layer_1" xmlns="http://www.w3.org/2000/svg" xmlns:xlink="http://www.w3.org/1999/xlink" viewBox="0 0 500 500"><defs><style>.cls-1{fill:url(#linear-gradient);}.cls-2{fill:url(#linear-gradient-3);}.cls-3{fill:url(#linear-gradient-4);}.cls-4{fill:url(#linear-gradient-2);}</style><linearGradient id="linear-gradient" x1="66.73" y1="311.36" x2="246.81" y2="311.36" gradientUnits="userSpaceOnUse"><stop offset="0" stop-color="#222"/><stop offset="1" stop-color="#121212"/></linearGradient><linearGradient id="linear-gradient-2" x1="253.19" y1="188.64" x2="433.27" y2="188.64" xlink:href="#linear-gradient"/><linearGradient id="linear-gradient-3" x1="247.08" y1="311.53" x2="67" y2="311.53" xlink:href="#linear-gradient"/><linearGradient id="linear-gradient-4" x1="433" y1="188.47" x2="252.92" y2="188.47" xlink:href="#linear-gradient"/></defs><g><polygon class="cls-1" points="246.81 491.44 246.81 131.28 66.73 311.36 246.81 491.44"/><polygon class="cls-4" points="253.19 8.56 253.19 368.72 433.27 188.64 253.19 8.56"/></g><g><polygon class="cls-2" points="123.15 311.53 247.08 187.61 247.08 131.46 67 311.53 247.08 491.61 247.08 435.46 123.15 311.53"/><polygon class="cls-3" points="376.85 188.47 252.92 312.39 252.92 368.54 433 188.47 252.92 8.39 252.92 64.54 376.85 188.47"/></g></svg>