<?xml version="1.0" encoding="UTF-8"?><svg id="Layer_1" xmlns="http://www.w3.org/2000/svg" xmlns:xlink="http://www.w3.org/1999/xlink" viewBox="0 0 500 500"><defs><style>.cls-1{fill:url(#linear-gradient);}.cls-2{fill:url(#linear-gradient-3);}.cls-3{fill:url(#linear-gradient-4);}.cls-4{fill:url(#linear-gradient-2);}.cls-5{fill:url(#linear-gradient-5);}</style><linearGradient id="linear-gradient" x1="-9.03" y1="-9.56" x2="506.43" y2="505.9" gradientUnits="userSpaceOnUse"><stop offset="0" stop-color="#15213d"/><stop offset=".3" stop-color="#193560"/><stop offset=".33" stop-color="#203464"/><stop offset=".43" stop-color="#3c3475"/><stop offset=".53" stop-color="#4d3480"/><stop offset=".6" stop-color="#533484"/><stop offset="1" stop-color="#e94660"/></linearGradient><linearGradient id="linear-gradient-2" x1="125.76" y1="291.6" x2="247.84" y2="291.6" gradientUnits="userSpaceOnUse"><stop offset="0" stop-color="#fff"/><stop offset="1" stop-color="#c9c9c9"/></linearGradient><linearGradient id="linear-gradient-3" x1="252.16" y1="208.4" x2="374.24" y2="208.4" xlink:href="#linear-gradient-2"/><linearGradient id="linear-gradient-4" x1="248.02" y1="291.71" x2="125.94" y2="291.71" gradientUnits="userSpaceOnUse"><stop offset="0" stop-color="#fff"/><stop offset="1" stop-color="#c9c9c9"/></linearGradient><linearGradient id="linear-gradient-5" x1="374.06" y1="208.29" x2="251.98" y2="208.29" xlink:href="#linear-gradient-4"/></defs><rect class="cls-1" x="-9.52" y="-9.07" width="516.44" height="514.48"/><g><g><polygon class="cls-4" points="247.84 413.67 247.84 169.52 125.76 291.6 247.84 413.67"/><polygon class="cls-2" points="252.16 86.33 252.16 330.48 374.24 208.4 252.16 86.33"/></g><g><polygon class="cls-3" points="164.01 291.71 248.02 207.7 248.02 169.64 125.94 291.71 248.02 413.79 248.02 375.72 164.01 291.71"/><polygon class="cls-5" points="335.99 208.29 251.98 292.3 251.98 330.36 374.06 208.29 251.98 86.21 251.98 124.28 335.99 208.29"/></g></g></svg>