<?xml version="1.0" encoding="UTF-8"?><svg id="Layer_1" xmlns="http://www.w3.org/2000/svg" xmlns:xlink="http://www.w3.org/1999/xlink" viewBox="0 0 500 500"><defs><style>.cls-1{fill:url(#linear-gradient);}.cls-2{fill:url(#linear-gradient-3);}.cls-3{fill:url(#linear-gradient-4);}.cls-4{fill:url(#linear-gradient-2);}</style><linearGradient id="linear-gradient" x1="67.01" y1="311.27" x2="246.82" y2="311.27" gradientUnits="userSpaceOnUse"><stop offset="0" stop-color="#fff"/><stop offset="1" stop-color="#c9c9c9"/></linearGradient><linearGradient id="linear-gradient-2" x1="253.18" y1="188.73" x2="432.99" y2="188.73" xlink:href="#linear-gradient"/><linearGradient id="linear-gradient-3" x1="247.08" y1="311.44" x2="67.28" y2="311.44" xlink:href="#linear-gradient"/><linearGradient id="linear-gradient-4" x1="432.72" y1="188.56" x2="252.92" y2="188.56" xlink:href="#linear-gradient"/></defs><g><polygon class="cls-1" points="246.82 491.07 246.82 131.47 67.01 311.27 246.82 491.07"/><polygon class="cls-4" points="253.18 8.93 253.18 368.53 432.99 188.73 253.18 8.93"/></g><g><polygon class="cls-2" points="123.34 311.44 247.08 187.7 247.08 131.64 67.28 311.44 247.08 491.24 247.08 435.18 123.34 311.44"/><polygon class="cls-3" points="376.66 188.56 252.92 312.3 252.92 368.36 432.72 188.56 252.92 8.76 252.92 64.82 376.66 188.56"/></g></svg>