<?xml version="1.0" standalone="no"?><svg xmlns:xlink="http://www.w3.org/1999/xlink" xmlns="http://www.w3.org/2000/svg" viewBox="0 0 1000 562.5026674064275" preserveAspectRatio="xMaxYMax slice"><g transform="scale(0.8535700567624088)"><rect x="0" y="0" width="1171.5555555555557" height="659" fill="#16213E"/><rect x="0" y="0" width="73.22222222222223" height="73.22222222222223" fill="#16213E"/><rect x="0" y="0" width="36.61" height="36.61" fill="#142647"/><polygon points="0,0 36.61,36.61 0,36.61" fill="#6a2f4b"/><rect x="36.61" y="0" width="36.61" height="36.61" fill="#10325c"/><polygon points="36.61,0 73.22,0 36.61,36.61" fill="#18213e"/><rect x="0" y="36.61" width="36.61" height="36.61" fill="#392744"/><polygon points="0,36.61 36.61,36.61 36.61,73.22" fill="#0f345f"/><rect x="36.61" y="36.61" width="36.61" height="36.61" fill="#4a3179"/><polygon points="36.61,36.61 73.22,36.61 73.22,73.22" fill="#162240"/><rect x="73.22222222222223" y="0" width="73.22222222222223" height="73.22222222222223" fill="#16213E"/><rect x="73.22" y="0" width="36.61" height="36.61" fill="#322642"/><polygon points="73.22,0 109.83,0 73.22,36.61" fill="#3f2e6c"/><rect x="109.83" y="0" width="36.61" height="36.61" fill="#3e2d6b"/><polygon points="109.83,0 146.44,0 109.83,36.61" fill="#2e2542"/><rect x="73.22" y="36.61" width="36.61" height="36.61" fill="#342a60"/><polygon points="109.83,36.61 109.83,73.22 73.22,73.22" fill="#202449"/><rect x="109.83" y="36.61" width="36.61" height="36.61" fill="#162240"/><polygon points="109.83,36.61 146.44,36.61 109.83,73.22" fill="#503380"/><rect x="146.44" y="0" width="73.22" height="73.22" fill="#aa3a56"/><polygon points="146.44,0 219.66,0 219.66,73.22" fill="#472946"/><rect x="219.66666666666669" y="0" width="73.22222222222223" height="73.22222222222223" fill="#16213E"/><rect x="219.67" y="0" width="36.61" height="36.61" fill="#6a2f4c"/><polygon points="219.67,0 256.28,36.61 219.67,36.61" fill="#122c52"/><rect x="256.28" y="0" width="36.61" height="36.61" fill="#13294c"/><polygon points="292.89,0 292.89,36.61 256.28,36.61" fill="#3b2c68"/><rect x="219.67" y="36.61" width="36.61" height="36.61" fill="#523482"/><polygon points="219.67,36.61 256.28,36.61 219.67,73.22" fill="#402e6d"/><rect x="256.28" y="36.61" width="36.61" height="36.61" fill="#4d2a47"/><polygon points="256.28,36.61 292.89,36.61 256.28,73.22" fill="#13284b"/><rect x="292.8888888888889" y="0" width="73.22222222222223" height="73.22222222222223" fill="#16213E"/><rect x="292.89" y="0" width="36.61" height="36.61" fill="#10325d"/><polygon points="329.5,0 329.5,36.61 292.89,36.61" fill="#1a2242"/><rect x="329.5" y="0" width="36.61" height="36.61" fill="#142646"/><polygon points="329.5,0 366.11,0 366.11,36.61" fill="#142647"/><rect x="292.89" y="36.61" width="36.61" height="36.61" fill="#16213e"/><polygon points="292.89,36.61 329.5,36.61 329.5,73.22" fill="#493178"/><rect x="329.5" y="36.61" width="36.61" height="36.61" fill="#5d2d49"/><polygon points="366.11,36.61 366.11,73.22 329.5,73.22" fill="#122d54"/><rect x="366.11111111111114" y="0" width="73.22222222222223" height="73.22222222222223" fill="#16213E"/><rect x="366.11" y="0" width="36.61" height="36.61" fill="#2f295a"/><polygon points="366.11,0 402.72,36.61 366.11,36.61" fill="#453073"/><rect x="402.72" y="0" width="36.61" height="36.61" fill="#24254e"/><polygon points="402.72,0 439.33000000000004,0 439.33000000000004,36.61" fill="#442f72"/><rect x="366.11" y="36.61" width="36.61" height="36.61" fill="#7f334f"/><polygon points="366.11,36.61 402.72,73.22 366.11,73.22" fill="#582c49"/><rect x="402.72" y="36.61" width="36.61" height="36.61" fill="#13284b"/><polygon points="439.33000000000004,36.61 439.33000000000004,73.22 402.72,73.22" fill="#412e6e"/><rect x="439.33333333333337" y="0" width="73.22222222222223" height="73.22222222222223" fill="#16213E"/><rect x="439.33" y="0" width="36.61" height="36.61" fill="#152444"/><polygon points="475.94,0 475.94,36.61 439.33,36.61" fill="#79324e"/><rect x="475.94" y="0" width="36.61" height="36.61" fill="#402e6d"/><polygon points="475.94,0 512.55,0 475.94,36.61" fill="#b93d58"/><rect x="439.33" y="36.61" width="36.61" height="36.61" fill="#202449"/><polygon points="439.33,36.61 475.94,36.61 439.33,73.22" fill="#113058"/><rect x="475.94" y="36.61" width="36.61" height="36.61" fill="#0f335e"/><polygon points="475.94,36.61 512.55,36.61 475.94,73.22" fill="#552c48"/><rect x="512.56" y="0" width="73.22" height="73.22" fill="#1b223f"/><polygon points="512.56,0 585.78,0 585.78,73.22" fill="#10325c"/><rect x="585.78" y="0" width="73.22" height="73.22" fill="#422f70"/><polygon points="585.78,0 659,0 659,73.22" fill="#6d304c"/><rect x="659" y="0" width="73.22222222222223" height="73.22222222222223" fill="#16213E"/><rect x="659" y="0" width="36.61" height="36.61" fill="#142546"/><polygon points="695.61,0 695.61,36.61 659,36.61" fill="#122d53"/><rect x="695.61" y="0" width="36.61" height="36.61" fill="#262650"/><polygon points="695.61,0 732.22,0 732.22,36.61" fill="#523482"/><rect x="659" y="36.61" width="36.61" height="36.61" fill="#582c49"/><polygon points="659,36.61 695.61,36.61 659,73.22" fill="#af3b57"/><rect x="695.61" y="36.61" width="36.61" height="36.61" fill="#4b327a"/><polygon points="695.61,36.61 732.22,36.61 732.22,73.22" fill="#8d3551"/><rect x="732.22" y="0" width="73.22" height="73.22" fill="#933652"/><polygon points="805.44,0 805.44,73.22 732.22,73.22" fill="#5e2d4a"/><rect x="805.44" y="0" width="73.22" height="73.22" fill="#2b2856"/><polygon points="805.44,0 878.6600000000001,0 878.6600000000001,73.22" fill="#13294c"/><rect x="878.67" y="0" width="73.22" height="73.22" fill="#0f335f"/><polygon points="878.67,0 951.89,73.22 878.67,73.22" fill="#a63a55"/><rect x="951.8888888888889" y="0" width="73.22222222222223" height="73.22222222222223" fill="#16213E"/><rect x="951.89" y="0" width="36.61" height="36.61" fill="#422945"/><polygon points="988.5,0 988.5,36.61 951.89,36.61" fill="#883450"/><rect x="988.5" y="0" width="36.61" height="36.61" fill="#b03b57"/><polygon points="988.5,0 1025.11,0 1025.11,36.61" fill="#31295c"/><rect x="951.89" y="36.61" width="36.61" height="36.61" fill="#b93d58"/><polygon points="951.89,36.61 988.5,36.61 951.89,73.22" fill="#4c327c"/><rect x="988.5" y="36.61" width="36.61" height="36.61" fill="#82334f"/><polygon points="988.5,36.61 1025.11,36.61 988.5,73.22" fill="#e5445f"/><rect x="1025.11" y="0" width="73.22" height="73.22" fill="#473075"/><polygon points="1025.11,0 1098.33,0 1025.11,73.22" fill="#292753"/><rect x="1098.33" y="0" width="73.22" height="73.22" fill="#493178"/><polygon points="1171.55,0 1171.55,73.22 1098.33,73.22" fill="#13284b"/><rect x="0" y="73.22222222222223" width="73.22222222222223" height="73.22222222222223" fill="#16213E"/><rect x="0" y="73.22" width="36.61" height="36.61" fill="#c83f5b"/><polygon points="0,73.22 36.61,109.83 0,109.83" fill="#483177"/><rect x="36.61" y="73.22" width="36.61" height="36.61" fill="#843450"/><polygon points="73.22,73.22 73.22,109.83 36.61,109.83" fill="#1c2345"/><rect x="0" y="109.83" width="36.61" height="36.61" fill="#1c2345"/><polygon points="0,109.83 36.61,109.83 0,146.44" fill="#7f334f"/><rect x="36.61" y="109.83" width="36.61" height="36.61" fill="#252440"/><polygon points="36.61,109.83 73.22,109.83 73.22,146.44" fill="#562c48"/><rect x="73.22" y="73.22" width="73.22" height="73.22" fill="#152342"/><polygon points="146.44,73.22 146.44,146.44 73.22,146.44" fill="#242340"/><rect x="146.44" y="73.22" width="73.22" height="73.22" fill="#1a2242"/><polygon points="146.44,73.22 219.66,73.22 146.44,146.44" fill="#212340"/><rect x="219.67" y="73.22" width="73.22" height="73.22" fill="#10315a"/><polygon points="219.67,73.22 292.89,73.22 292.89,146.44" fill="#13294d"/><rect x="292.89" y="73.22" width="73.22" height="73.22" fill="#152341"/><polygon points="292.89,73.22 366.11,73.22 366.11,146.44" fill="#3e2d6b"/><rect x="366.11" y="73.22" width="73.22" height="73.22" fill="#412845"/><polygon points="366.11,73.22 439.33000000000004,73.22 439.33000000000004,146.44" fill="#873450"/><rect x="439.33333333333337" y="73.22222222222223" width="73.22222222222223" height="73.22222222222223" fill="#16213E"/><rect x="439.33" y="73.22" width="36.61" height="36.61" fill="#13294d"/><polygon points="439.33,73.22 475.94,73.22 475.94,109.83" fill="#75314d"/><rect x="475.94" y="73.22" width="36.61" height="36.61" fill="#3a2c67"/><polygon points="475.94,73.22 512.55,109.83 475.94,109.83" fill="#1b2243"/><rect x="439.33" y="109.83" width="36.61" height="36.61" fill="#112f57"/><polygon points="475.94,109.83 475.94,146.44 439.33,146.44" fill="#2e2542"/><rect x="475.94" y="109.83" width="36.61" height="36.61" fill="#74314d"/><polygon points="475.94,109.83 512.55,109.83 512.55,146.44" fill="#4c327b"/><rect x="512.56" y="73.22" width="73.22" height="73.22" fill="#152444"/><polygon points="512.56,73.22 585.78,73.22 512.56,146.44" fill="#493177"/><rect x="585.78" y="73.22" width="73.22" height="73.22" fill="#10325c"/><polygon points="659,73.22 659,146.44 585.78,146.44" fill="#5d2d49"/><rect x="659" y="73.22" width="73.22" height="73.22" fill="#83344f"/><polygon points="732.22,73.22 732.22,146.44 659,146.44" fill="#16223f"/><rect x="732.2222222222223" y="73.22222222222223" width="73.22222222222223" height="73.22222222222223" fill="#16213E"/><rect x="732.22" y="73.22" width="36.61" height="36.61" fill="#10315b"/><polygon points="732.22,73.22 768.83,73.22 732.22,109.83" fill="#5a2d49"/><rect x="768.83" y="73.22" width="36.61" height="36.61" fill="#aa3a56"/><polygon points="768.83,73.22 805.44,73.22 768.83,109.83" fill="#4d327c"/><rect x="732.22" y="109.83" width="36.61" height="36.61" fill="#122c51"/><polygon points="732.22,109.83 768.83,146.44 732.22,146.44" fill="#c93f5b"/><rect x="768.83" y="109.83" width="36.61" height="36.61" fill="#142749"/><polygon points="768.83,109.83 805.44,109.83 805.44,146.44" fill="#112e55"/><rect x="805.4444444444446" y="73.22222222222223" width="73.22222222222223" height="73.22222222222223" fill="#16213E"/><rect x="805.44" y="73.22" width="36.61" height="36.61" fill="#152545"/><polygon points="805.44,73.22 842.0500000000001,73.22 842.0500000000001,109.83" fill="#493177"/><rect x="842.06" y="73.22" width="36.61" height="36.61" fill="#13284b"/><polygon points="842.06,73.22 878.67,73.22 842.06,109.83" fill="#402845"/><rect x="805.44" y="109.83" width="36.61" height="36.61" fill="#112f57"/><polygon points="805.44,109.83 842.0500000000001,109.83 805.44,146.44" fill="#473075"/><rect x="842.06" y="109.83" width="36.61" height="36.61" fill="#122d54"/><polygon points="842.06,109.83 878.67,109.83 878.67,146.44" fill="#122b4f"/><rect x="878.67" y="73.22" width="73.22" height="73.22" fill="#463075"/><polygon points="878.67,73.22 951.89,73.22 951.89,146.44" fill="#bd3d59"/><rect x="951.89" y="73.22" width="73.22" height="73.22" fill="#152342"/><polygon points="951.89,73.22 1025.11,73.22 1025.11,146.44" fill="#13284b"/><rect x="1025.11" y="73.22" width="73.22" height="73.22" fill="#2d2858"/><polygon points="1098.33,73.22 1098.33,146.44 1025.11,146.44" fill="#202340"/><rect x="1098.33" y="73.22" width="73.22" height="73.22" fill="#30295b"/><polygon points="1098.33,73.22 1171.55,146.44 1098.33,146.44" fill="#1b2344"/><rect x="0" y="146.44444444444446" width="73.22222222222223" height="73.22222222222223" fill="#16213E"/><rect x="0" y="146.44" width="36.61" height="36.61" fill="#4a2a46"/><polygon points="0,146.44 36.61,183.05 0,183.05" fill="#893551"/><rect x="36.61" y="146.44" width="36.61" height="36.61" fill="#6e304c"/><polygon points="36.61,146.44 73.22,146.44 36.61,183.05" fill="#993753"/><rect x="0" y="183.06" width="36.61" height="36.61" fill="#4d327c"/><polygon points="0,183.06 36.61,183.06 36.61,219.67000000000002" fill="#142647"/><rect x="36.61" y="183.06" width="36.61" height="36.61" fill="#352b61"/><polygon points="36.61,183.06 73.22,183.06 73.22,219.67000000000002" fill="#16223f"/><rect x="73.22222222222223" y="146.44444444444446" width="73.22222222222223" height="73.22222222222223" fill="#16213E"/><rect x="73.22" y="146.44" width="36.61" height="36.61" fill="#352b61"/><polygon points="73.22,146.44 109.83,146.44 109.83,183.05" fill="#483076"/><rect x="109.83" y="146.44" width="36.61" height="36.61" fill="#3c2d69"/><polygon points="146.44,146.44 146.44,183.05 109.83,183.05" fill="#492a46"/><rect x="73.22" y="183.06" width="36.61" height="36.61" fill="#322a5e"/><polygon points="73.22,183.06 109.83,183.06 109.83,219.67000000000002" fill="#142646"/><rect x="109.83" y="183.06" width="36.61" height="36.61" fill="#3a2c66"/><polygon points="146.44,183.06 146.44,219.67000000000002 109.83,219.67000000000002" fill="#1e223f"/><rect x="146.44" y="146.44" width="73.22" height="73.22" fill="#463074"/><polygon points="146.44,146.44 219.66,219.66 146.44,219.66" fill="#113058"/><rect x="219.67" y="146.44" width="73.22" height="73.22" fill="#362b62"/><polygon points="219.67,146.44 292.89,146.44 219.67,219.66" fill="#10315b"/><rect x="292.8888888888889" y="146.44444444444446" width="73.22222222222223" height="73.22222222222223" fill="#16213E"/><rect x="292.89" y="146.44" width="36.61" height="36.61" fill="#10315a"/><polygon points="329.5,146.44 329.5,183.05 292.89,183.05" fill="#a63a55"/><rect x="329.5" y="146.44" width="36.61" height="36.61" fill="#122d53"/><polygon points="329.5,146.44 366.11,146.44 366.11,183.05" fill="#863450"/><rect x="292.89" y="183.06" width="36.61" height="36.61" fill="#122b4f"/><polygon points="292.89,183.06 329.5,219.67000000000002 292.89,219.67000000000002" fill="#16213f"/><rect x="329.5" y="183.06" width="36.61" height="36.61" fill="#d9425d"/><polygon points="329.5,183.06 366.11,183.06 329.5,219.67000000000002" fill="#112f58"/><rect x="366.11" y="146.44" width="73.22" height="73.22" fill="#9a3853"/><polygon points="366.11,146.44 439.33000000000004,219.66 366.11,219.66" fill="#d1415c"/><rect x="439.33" y="146.44" width="73.22" height="73.22" fill="#1f2448"/><polygon points="439.33,146.44 512.55,146.44 512.55,219.66" fill="#162240"/><rect x="512.5555555555557" y="146.44444444444446" width="73.22222222222223" height="73.22222222222223" fill="#16213E"/><rect x="512.56" y="146.44" width="36.61" height="36.61" fill="#3b2c68"/><polygon points="549.17,146.44 549.17,183.05 512.56,183.05" fill="#482a46"/><rect x="549.17" y="146.44" width="36.61" height="36.61" fill="#513380"/><polygon points="549.17,146.44 585.78,183.05 549.17,183.05" fill="#402e6d"/><rect x="512.56" y="183.06" width="36.61" height="36.61" fill="#1b223f"/><polygon points="512.56,183.06 549.17,183.06 512.56,219.67000000000002" fill="#452946"/><rect x="549.17" y="183.06" width="36.61" height="36.61" fill="#122c52"/><polygon points="549.17,183.06 585.78,183.06 585.78,219.67000000000002" fill="#2d2858"/><rect x="585.78" y="146.44" width="73.22" height="73.22" fill="#30295b"/><polygon points="659,146.44 659,219.66 585.78,219.66" fill="#e2445f"/><rect x="659" y="146.44" width="73.22" height="73.22" fill="#e94560"/><polygon points="732.22,146.44 732.22,219.66 659,219.66" fill="#4f2b47"/><rect x="732.22" y="146.44" width="73.22" height="73.22" fill="#132a4d"/><polygon points="732.22,146.44 805.44,146.44 805.44,219.66" fill="#122d53"/><rect x="805.44" y="146.44" width="73.22" height="73.22" fill="#142646"/><polygon points="805.44,146.44 878.6600000000001,146.44 878.6600000000001,219.66" fill="#272651"/><rect x="878.6666666666667" y="146.44444444444446" width="73.22222222222223" height="73.22222222222223" fill="#16213E"/><rect x="878.67" y="146.44" width="36.61" height="36.61" fill="#3a2c67"/><polygon points="878.67,146.44 915.28,146.44 915.28,183.05" fill="#142748"/><rect x="915.28" y="146.44" width="36.61" height="36.61" fill="#9b3853"/><polygon points="915.28,146.44 951.89,146.44 915.28,183.05" fill="#1a2243"/><rect x="878.67" y="183.06" width="36.61" height="36.61" fill="#122d53"/><polygon points="878.67,183.06 915.28,183.06 878.67,219.67000000000002" fill="#a63a55"/><rect x="915.28" y="183.06" width="36.61" height="36.61" fill="#322643"/><polygon points="915.28,183.06 951.89,183.06 951.89,219.67000000000002" fill="#513481"/><rect x="951.89" y="146.44" width="73.22" height="73.22" fill="#402e6d"/><polygon points="951.89,146.44 1025.11,146.44 1025.11,219.66" fill="#ba3d58"/><rect x="1025.1111111111113" y="146.44444444444446" width="73.22222222222223" height="73.22222222222223" fill="#16213E"/><rect x="1025.11" y="146.44" width="36.61" height="36.61" fill="#2f295b"/><polygon points="1061.7199999999998,146.44 1061.7199999999998,183.05 1025.11,183.05" fill="#14284a"/><rect x="1061.72" y="146.44" width="36.61" height="36.61" fill="#442f72"/><polygon points="1061.72,146.44 1098.33,183.05 1061.72,183.05" fill="#142749"/><rect x="1025.11" y="183.06" width="36.61" height="36.61" fill="#292754"/><polygon points="1025.11,183.06 1061.7199999999998,219.67000000000002 1025.11,219.67000000000002" fill="#1c223f"/><rect x="1061.72" y="183.06" width="36.61" height="36.61" fill="#2a2754"/><polygon points="1061.72,183.06 1098.33,183.06 1098.33,219.67000000000002" fill="#23254c"/><rect x="1098.3333333333335" y="146.44444444444446" width="73.22222222222223" height="73.22222222222223" fill="#16213E"/><rect x="1098.33" y="146.44" width="36.61" height="36.61" fill="#402845"/><polygon points="1098.33,146.44 1134.9399999999998,146.44 1134.9399999999998,183.05" fill="#0f345f"/><rect x="1134.94" y="146.44" width="36.61" height="36.61" fill="#142748"/><polygon points="1134.94,146.44 1171.55,146.44 1134.94,183.05" fill="#c83f5b"/><rect x="1098.33" y="183.06" width="36.61" height="36.61" fill="#362b62"/><polygon points="1098.33,183.06 1134.9399999999998,219.67000000000002 1098.33,219.67000000000002" fill="#dc435e"/><rect x="1134.94" y="183.06" width="36.61" height="36.61" fill="#883450"/><polygon points="1134.94,183.06 1171.55,183.06 1171.55,219.67000000000002" fill="#4d327c"/><rect x="0" y="219.66666666666669" width="73.22222222222223" height="73.22222222222223" fill="#16213E"/><rect x="0" y="219.67" width="36.61" height="36.61" fill="#4e337e"/><polygon points="0,219.67 36.61,256.28 0,256.28" fill="#202449"/><rect x="36.61" y="219.67" width="36.61" height="36.61" fill="#3a2c66"/><polygon points="36.61,219.67 73.22,219.67 73.22,256.28" fill="#212340"/><rect x="0" y="256.28" width="36.61" height="36.61" fill="#3d2d6a"/><polygon points="0,256.28 36.61,256.28 36.61,292.89" fill="#31295c"/><rect x="36.61" y="256.28" width="36.61" height="36.61" fill="#c03e59"/><polygon points="36.61,256.28 73.22,292.89 36.61,292.89" fill="#ae3b56"/><rect x="73.22222222222223" y="219.66666666666669" width="73.22222222222223" height="73.22222222222223" fill="#16213E"/><rect x="73.22" y="219.67" width="36.61" height="36.61" fill="#10315b"/><polygon points="73.22,219.67 109.83,219.67 109.83,256.28" fill="#152443"/><rect x="109.83" y="219.67" width="36.61" height="36.61" fill="#142646"/><polygon points="109.83,219.67 146.44,219.67 146.44,256.28" fill="#72314d"/><rect x="73.22" y="256.28" width="36.61" height="36.61" fill="#652f4b"/><polygon points="73.22,256.28 109.83,256.28 109.83,292.89" fill="#2b2856"/><rect x="109.83" y="256.28" width="36.61" height="36.61" fill="#a03954"/><polygon points="109.83,256.28 146.44,256.28 109.83,292.89" fill="#da425e"/><rect x="146.44" y="219.67" width="73.22" height="73.22" fill="#8c3551"/><polygon points="146.44,219.67 219.66,219.67 219.66,292.89" fill="#3a2c66"/><rect x="219.66666666666669" y="219.66666666666669" width="73.22222222222223" height="73.22222222222223" fill="#16213E"/><rect x="219.67" y="219.67" width="36.61" height="36.61" fill="#282752"/><polygon points="219.67,219.67 256.28,219.67 219.67,256.28" fill="#2b2856"/><rect x="256.28" y="219.67" width="36.61" height="36.61" fill="#7c324e"/><polygon points="292.89,219.67 292.89,256.28 256.28,256.28" fill="#8d3551"/><rect x="219.67" y="256.28" width="36.61" height="36.61" fill="#13294c"/><polygon points="219.67,256.28 256.28,256.28 256.28,292.89" fill="#4c327c"/><rect x="256.28" y="256.28" width="36.61" height="36.61" fill="#8c3551"/><polygon points="292.89,256.28 292.89,292.89 256.28,292.89" fill="#13294d"/><rect x="292.89" y="219.67" width="73.22" height="73.22" fill="#122d53"/><polygon points="292.89,219.67 366.11,292.89 292.89,292.89" fill="#10315b"/><rect x="366.11111111111114" y="219.66666666666669" width="73.22222222222223" height="73.22222222222223" fill="#16213E"/><rect x="366.11" y="219.67" width="36.61" height="36.61" fill="#20244a"/><polygon points="366.11,219.67 402.72,256.28 366.11,256.28" fill="#282753"/><rect x="402.72" y="219.67" width="36.61" height="36.61" fill="#80334f"/><polygon points="402.72,219.67 439.33000000000004,256.28 402.72,256.28" fill="#9f3854"/><rect x="366.11" y="256.28" width="36.61" height="36.61" fill="#4f337e"/><polygon points="402.72,256.28 402.72,292.89 366.11,292.89" fill="#122d54"/><rect x="402.72" y="256.28" width="36.61" height="36.61" fill="#c13e5a"/><polygon points="402.72,256.28 439.33000000000004,292.89 402.72,292.89" fill="#392c65"/><rect x="439.33333333333337" y="219.66666666666669" width="73.22222222222223" height="73.22222222222223" fill="#16213E"/><rect x="439.33" y="219.67" width="36.61" height="36.61" fill="#652e4b"/><polygon points="439.33,219.67 475.94,219.67 439.33,256.28" fill="#21244a"/><rect x="475.94" y="219.67" width="36.61" height="36.61" fill="#1d223f"/><polygon points="475.94,219.67 512.55,256.28 475.94,256.28" fill="#30295b"/><rect x="439.33" y="256.28" width="36.61" height="36.61" fill="#1a2243"/><polygon points="475.94,256.28 475.94,292.89 439.33,292.89" fill="#412e6f"/><rect x="475.94" y="256.28" width="36.61" height="36.61" fill="#392c65"/><polygon points="512.55,256.28 512.55,292.89 475.94,292.89" fill="#db435e"/><rect x="512.5555555555557" y="219.66666666666669" width="73.22222222222223" height="73.22222222222223" fill="#16213E"/><rect x="512.56" y="219.67" width="36.61" height="36.61" fill="#24254e"/><polygon points="512.56,219.67 549.17,219.67 549.17,256.28" fill="#be3e59"/><rect x="549.17" y="219.67" width="36.61" height="36.61" fill="#122d54"/><polygon points="585.78,219.67 585.78,256.28 549.17,256.28" fill="#522b48"/><rect x="512.56" y="256.28" width="36.61" height="36.61" fill="#e64460"/><polygon points="512.56,256.28 549.17,256.28 549.17,292.89" fill="#4b327a"/><rect x="549.17" y="256.28" width="36.61" height="36.61" fill="#2d2858"/><polygon points="549.17,256.28 585.78,256.28 549.17,292.89" fill="#112e55"/><rect x="585.7777777777778" y="219.66666666666669" width="73.22222222222223" height="73.22222222222223" fill="#16213E"/><rect x="585.78" y="219.67" width="36.61" height="36.61" fill="#122b50"/><polygon points="585.78,219.67 622.39,219.67 585.78,256.28" fill="#23254d"/><rect x="622.39" y="219.67" width="36.61" height="36.61" fill="#e94560"/><polygon points="622.39,219.67 659,219.67 659,256.28" fill="#382b64"/><rect x="585.78" y="256.28" width="36.61" height="36.61" fill="#152342"/><polygon points="585.78,256.28 622.39,256.28 585.78,292.89" fill="#883550"/><rect x="622.39" y="256.28" width="36.61" height="36.61" fill="#453074"/><polygon points="622.39,256.28 659,292.89 622.39,292.89" fill="#112f57"/><rect x="659" y="219.67" width="73.22" height="73.22" fill="#122b4f"/><polygon points="732.22,219.67 732.22,292.89 659,292.89" fill="#be3e59"/><rect x="732.22" y="219.67" width="73.22" height="73.22" fill="#1a2243"/><polygon points="732.22,219.67 805.44,219.67 805.44,292.89" fill="#23254d"/><rect x="805.44" y="219.67" width="73.22" height="73.22" fill="#122d53"/><polygon points="878.6600000000001,219.67 878.6600000000001,292.89 805.44,292.89" fill="#10315a"/><rect x="878.67" y="219.67" width="73.22" height="73.22" fill="#523482"/><polygon points="878.67,219.67 951.89,219.67 951.89,292.89" fill="#d2415c"/><rect x="951.8888888888889" y="219.66666666666669" width="73.22222222222223" height="73.22222222222223" fill="#16213E"/><rect x="951.89" y="219.67" width="36.61" height="36.61" fill="#432945"/><polygon points="951.89,219.67 988.5,219.67 988.5,256.28" fill="#112e55"/><rect x="988.5" y="219.67" width="36.61" height="36.61" fill="#21244b"/><polygon points="988.5,219.67 1025.11,256.28 988.5,256.28" fill="#152544"/><rect x="951.89" y="256.28" width="36.61" height="36.61" fill="#17213f"/><polygon points="951.89,256.28 988.5,256.28 951.89,292.89" fill="#1b2344"/><rect x="988.5" y="256.28" width="36.61" height="36.61" fill="#af3b57"/><polygon points="988.5,256.28 1025.11,256.28 988.5,292.89" fill="#612e4a"/><rect x="1025.1111111111113" y="219.66666666666669" width="73.22222222222223" height="73.22222222222223" fill="#16213E"/><rect x="1025.11" y="219.67" width="36.61" height="36.61" fill="#493178"/><polygon points="1025.11,219.67 1061.7199999999998,256.28 1025.11,256.28" fill="#152545"/><rect x="1061.72" y="219.67" width="36.61" height="36.61" fill="#382c65"/><polygon points="1098.33,219.67 1098.33,256.28 1061.72,256.28" fill="#14274a"/><rect x="1025.11" y="256.28" width="36.61" height="36.61" fill="#292753"/><polygon points="1025.11,256.28 1061.7199999999998,256.28 1061.7199999999998,292.89" fill="#523481"/><rect x="1061.72" y="256.28" width="36.61" height="36.61" fill="#10315b"/><polygon points="1098.33,256.28 1098.33,292.89 1061.72,292.89" fill="#513381"/><rect x="1098.33" y="219.67" width="73.22" height="73.22" fill="#74314d"/><polygon points="1098.33,219.67 1171.55,219.67 1171.55,292.89" fill="#1b2344"/><rect x="0" y="292.89" width="73.22" height="73.22" fill="#10325c"/><polygon points="0,292.89 73.22,292.89 73.22,366.11" fill="#4f337e"/><rect x="73.22222222222223" y="292.8888888888889" width="73.22222222222223" height="73.22222222222223" fill="#16213E"/><rect x="73.22" y="292.89" width="36.61" height="36.61" fill="#112f57"/><polygon points="73.22,292.89 109.83,292.89 109.83,329.5" fill="#13294d"/><rect x="109.83" y="292.89" width="36.61" height="36.61" fill="#3d2d6a"/><polygon points="146.44,292.89 146.44,329.5 109.83,329.5" fill="#25264f"/><rect x="73.22" y="329.5" width="36.61" height="36.61" fill="#493178"/><polygon points="73.22,329.5 109.83,329.5 73.22,366.11" fill="#e5445f"/><rect x="109.83" y="329.5" width="36.61" height="36.61" fill="#db435e"/><polygon points="109.83,329.5 146.44,366.11 109.83,366.11" fill="#1c2345"/><rect x="146.44444444444446" y="292.8888888888889" width="73.22222222222223" height="73.22222222222223" fill="#16213E"/><rect x="146.44" y="292.89" width="36.61" height="36.61" fill="#0f335f"/><polygon points="183.05,292.89 183.05,329.5 146.44,329.5" fill="#152545"/><rect x="183.06" y="292.89" width="36.61" height="36.61" fill="#142546"/><polygon points="183.06,292.89 219.67000000000002,292.89 219.67000000000002,329.5" fill="#4c2a47"/><rect x="146.44" y="329.5" width="36.61" height="36.61" fill="#493178"/><polygon points="183.05,329.5 183.05,366.11 146.44,366.11" fill="#632e4a"/><rect x="183.06" y="329.5" width="36.61" height="36.61" fill="#4c327b"/><polygon points="219.67000000000002,329.5 219.67000000000002,366.11 183.06,366.11" fill="#112f56"/><rect x="219.67" y="292.89" width="73.22" height="73.22" fill="#10325c"/><polygon points="219.67,292.89 292.89,292.89 219.67,366.11" fill="#533483"/><rect x="292.8888888888889" y="292.8888888888889" width="73.22222222222223" height="73.22222222222223" fill="#16213E"/><rect x="292.89" y="292.89" width="36.61" height="36.61" fill="#903652"/><polygon points="292.89,292.89 329.5,329.5 292.89,329.5" fill="#71304d"/><rect x="329.5" y="292.89" width="36.61" height="36.61" fill="#af3b57"/><polygon points="329.5,292.89 366.11,292.89 366.11,329.5" fill="#2d2542"/><rect x="292.89" y="329.5" width="36.61" height="36.61" fill="#23254d"/><polygon points="292.89,329.5 329.5,329.5 329.5,366.11" fill="#483177"/><rect x="329.5" y="329.5" width="36.61" height="36.61" fill="#9e3854"/><polygon points="366.11,329.5 366.11,366.11 329.5,366.11" fill="#533483"/><rect x="366.11111111111114" y="292.8888888888889" width="73.22222222222223" height="73.22222222222223" fill="#16213E"/><rect x="366.11" y="292.89" width="36.61" height="36.61" fill="#31295c"/><polygon points="366.11,292.89 402.72,292.89 402.72,329.5" fill="#103059"/><rect x="402.72" y="292.89" width="36.61" height="36.61" fill="#17213f"/><polygon points="439.33000000000004,292.89 439.33000000000004,329.5 402.72,329.5" fill="#dd435e"/><rect x="366.11" y="329.5" width="36.61" height="36.61" fill="#4c327c"/><polygon points="366.11,329.5 402.72,329.5 366.11,366.11" fill="#112f56"/><rect x="402.72" y="329.5" width="36.61" height="36.61" fill="#c83f5b"/><polygon points="439.33000000000004,329.5 439.33000000000004,366.11 402.72,366.11" fill="#1a223f"/><rect x="439.33333333333337" y="292.8888888888889" width="73.22222222222223" height="73.22222222222223" fill="#16213E"/><rect x="439.33" y="292.89" width="36.61" height="36.61" fill="#d5425d"/><polygon points="439.33,292.89 475.94,292.89 475.94,329.5" fill="#262441"/><rect x="475.94" y="292.89" width="36.61" height="36.61" fill="#112f58"/><polygon points="475.94,292.89 512.55,329.5 475.94,329.5" fill="#122c53"/><rect x="439.33" y="329.5" width="36.61" height="36.61" fill="#10315b"/><polygon points="475.94,329.5 475.94,366.11 439.33,366.11" fill="#462946"/><rect x="475.94" y="329.5" width="36.61" height="36.61" fill="#642e4b"/><polygon points="475.94,329.5 512.55,329.5 512.55,366.11" fill="#292754"/><rect x="512.5555555555557" y="292.8888888888889" width="73.22222222222223" height="73.22222222222223" fill="#16213E"/><rect x="512.56" y="292.89" width="36.61" height="36.61" fill="#142748"/><polygon points="549.17,292.89 549.17,329.5 512.56,329.5" fill="#492a46"/><rect x="549.17" y="292.89" width="36.61" height="36.61" fill="#c33f5a"/><polygon points="549.17,292.89 585.78,329.5 549.17,329.5" fill="#31295c"/><rect x="512.56" y="329.5" width="36.61" height="36.61" fill="#493178"/><polygon points="512.56,329.5 549.17,366.11 512.56,366.11" fill="#21244a"/><rect x="549.17" y="329.5" width="36.61" height="36.61" fill="#a83a55"/><polygon points="549.17,329.5 585.78,329.5 549.17,366.11" fill="#122c51"/><rect x="585.7777777777778" y="292.8888888888889" width="73.22222222222223" height="73.22222222222223" fill="#16213E"/><rect x="585.78" y="292.89" width="36.61" height="36.61" fill="#6c304c"/><polygon points="585.78,292.89 622.39,329.5 585.78,329.5" fill="#2c2857"/><rect x="622.39" y="292.89" width="36.61" height="36.61" fill="#31295d"/><polygon points="622.39,292.89 659,292.89 622.39,329.5" fill="#0f3460"/><rect x="585.78" y="329.5" width="36.61" height="36.61" fill="#282753"/><polygon points="585.78,329.5 622.39,329.5 622.39,366.11" fill="#1e2447"/><rect x="622.39" y="329.5" width="36.61" height="36.61" fill="#112e55"/><polygon points="659,329.5 659,366.11 622.39,366.11" fill="#342643"/><rect x="659" y="292.8888888888889" width="73.22222222222223" height="73.22222222222223" fill="#16213E"/><rect x="659" y="292.89" width="36.61" height="36.61" fill="#572c48"/><polygon points="659,292.89 695.61,292.89 695.61,329.5" fill="#122d54"/><rect x="695.61" y="292.89" width="36.61" height="36.61" fill="#4a3178"/><polygon points="695.61,292.89 732.22,292.89 695.61,329.5" fill="#a53955"/><rect x="659" y="329.5" width="36.61" height="36.61" fill="#10315a"/><polygon points="659,329.5 695.61,366.11 659,366.11" fill="#1c2345"/><rect x="695.61" y="329.5" width="36.61" height="36.61" fill="#8d3551"/><polygon points="695.61,329.5 732.22,329.5 732.22,366.11" fill="#db435e"/><rect x="732.2222222222223" y="292.8888888888889" width="73.22222222222223" height="73.22222222222223" fill="#16213E"/><rect x="732.22" y="292.89" width="36.61" height="36.61" fill="#332a5e"/><polygon points="732.22,292.89 768.83,329.5 732.22,329.5" fill="#0f335f"/><rect x="768.83" y="292.89" width="36.61" height="36.61" fill="#bc3d59"/><polygon points="768.83,292.89 805.44,292.89 805.44,329.5" fill="#572c48"/><rect x="732.22" y="329.5" width="36.61" height="36.61" fill="#c03e59"/><polygon points="732.22,329.5 768.83,329.5 732.22,366.11" fill="#3f2e6d"/><rect x="768.83" y="329.5" width="36.61" height="36.61" fill="#192241"/><polygon points="768.83,329.5 805.44,366.11 768.83,366.11" fill="#10315b"/><rect x="805.44" y="292.89" width="73.22" height="73.22" fill="#6c304c"/><polygon points="805.44,292.89 878.6600000000001,292.89 878.6600000000001,366.11" fill="#152444"/><rect x="878.6666666666667" y="292.8888888888889" width="73.22222222222223" height="73.22222222222223" fill="#16213E"/><rect x="878.67" y="292.89" width="36.61" height="36.61" fill="#b53c58"/><polygon points="878.67,292.89 915.28,292.89 878.67,329.5" fill="#142748"/><rect x="915.28" y="292.89" width="36.61" height="36.61" fill="#30295c"/><polygon points="915.28,292.89 951.89,329.5 915.28,329.5" fill="#2a2754"/><rect x="878.67" y="329.5" width="36.61" height="36.61" fill="#31295c"/><polygon points="878.67,329.5 915.28,329.5 878.67,366.11" fill="#db435e"/><rect x="915.28" y="329.5" width="36.61" height="36.61" fill="#a23954"/><polygon points="915.28,329.5 951.89,329.5 915.28,366.11" fill="#25264e"/><rect x="951.89" y="292.89" width="73.22" height="73.22" fill="#10315b"/><polygon points="951.89,292.89 1025.11,292.89 1025.11,366.11" fill="#112f58"/><rect x="1025.11" y="292.89" width="73.22" height="73.22" fill="#b03b57"/><polygon points="1025.11,292.89 1098.33,292.89 1025.11,366.11" fill="#4c327b"/><rect x="1098.33" y="292.89" width="73.22" height="73.22" fill="#142749"/><polygon points="1098.33,292.89 1171.55,292.89 1098.33,366.11" fill="#4f337e"/><rect x="0" y="366.11111111111114" width="73.22222222222223" height="73.22222222222223" fill="#16213E"/><rect x="0" y="366.11" width="36.61" height="36.61" fill="#3a2744"/><polygon points="0,366.11 36.61,366.11 36.61,402.72" fill="#ab3a56"/><rect x="36.61" y="366.11" width="36.61" height="36.61" fill="#3f2e6d"/><polygon points="73.22,366.11 73.22,402.72 36.61,402.72" fill="#3a2c66"/><rect x="0" y="402.72" width="36.61" height="36.61" fill="#372b63"/><polygon points="0,402.72 36.61,402.72 36.61,439.33000000000004" fill="#973753"/><rect x="36.61" y="402.72" width="36.61" height="36.61" fill="#cc405b"/><polygon points="36.61,402.72 73.22,402.72 36.61,439.33000000000004" fill="#372743"/><rect x="73.22" y="366.11" width="73.22" height="73.22" fill="#122d54"/><polygon points="73.22,366.11 146.44,439.33000000000004 73.22,439.33000000000004" fill="#21244b"/><rect x="146.44" y="366.11" width="73.22" height="73.22" fill="#212340"/><polygon points="146.44,366.11 219.66,366.11 146.44,439.33000000000004" fill="#13294c"/><rect x="219.67" y="366.11" width="73.22" height="73.22" fill="#10315a"/><polygon points="292.89,366.11 292.89,439.33000000000004 219.67,439.33000000000004" fill="#9a3753"/><rect x="292.8888888888889" y="366.11111111111114" width="73.22222222222223" height="73.22222222222223" fill="#16213E"/><rect x="292.89" y="366.11" width="36.61" height="36.61" fill="#332643"/><polygon points="329.5,366.11 329.5,402.72 292.89,402.72" fill="#272651"/><rect x="329.5" y="366.11" width="36.61" height="36.61" fill="#103059"/><polygon points="329.5,366.11 366.11,366.11 329.5,402.72" fill="#112f57"/><rect x="292.89" y="402.72" width="36.61" height="36.61" fill="#a73a55"/><polygon points="292.89,402.72 329.5,402.72 329.5,439.33000000000004" fill="#dc435e"/><rect x="329.5" y="402.72" width="36.61" height="36.61" fill="#993753"/><polygon points="329.5,402.72 366.11,402.72 329.5,439.33000000000004" fill="#10325c"/><rect x="366.11111111111114" y="366.11111111111114" width="73.22222222222223" height="73.22222222222223" fill="#16213E"/><rect x="366.11" y="366.11" width="36.61" height="36.61" fill="#23254c"/><polygon points="366.11,366.11 402.72,402.72 366.11,402.72" fill="#6f304c"/><rect x="402.72" y="366.11" width="36.61" height="36.61" fill="#1c2344"/><polygon points="402.72,366.11 439.33000000000004,366.11 439.33000000000004,402.72" fill="#0f335f"/><rect x="366.11" y="402.72" width="36.61" height="36.61" fill="#883550"/><polygon points="366.11,402.72 402.72,402.72 366.11,439.33000000000004" fill="#13284b"/><rect x="402.72" y="402.72" width="36.61" height="36.61" fill="#1b2344"/><polygon points="402.72,402.72 439.33000000000004,439.33000000000004 402.72,439.33000000000004" fill="#2f2542"/><rect x="439.33" y="366.11" width="73.22" height="73.22" fill="#2c2857"/><polygon points="439.33,366.11 512.55,366.11 439.33,439.33000000000004" fill="#a63a55"/><rect x="512.56" y="366.11" width="73.22" height="73.22" fill="#463074"/><polygon points="512.56,366.11 585.78,439.33000000000004 512.56,439.33000000000004" fill="#382c64"/><rect x="585.78" y="366.11" width="73.22" height="73.22" fill="#e4445f"/><polygon points="585.78,366.11 659,366.11 585.78,439.33000000000004" fill="#78324e"/><rect x="659" y="366.11111111111114" width="73.22222222222223" height="73.22222222222223" fill="#16213E"/><rect x="659" y="366.11" width="36.61" height="36.61" fill="#1f2448"/><polygon points="695.61,366.11 695.61,402.72 659,402.72" fill="#903652"/><rect x="695.61" y="366.11" width="36.61" height="36.61" fill="#113058"/><polygon points="732.22,366.11 732.22,402.72 695.61,402.72" fill="#2e2859"/><rect x="659" y="402.72" width="36.61" height="36.61" fill="#3f2845"/><polygon points="659,402.72 695.61,439.33000000000004 659,439.33000000000004" fill="#362b62"/><rect x="695.61" y="402.72" width="36.61" height="36.61" fill="#76314d"/><polygon points="732.22,402.72 732.22,439.33000000000004 695.61,439.33000000000004" fill="#6c304c"/><rect x="732.2222222222223" y="366.11111111111114" width="73.22222222222223" height="73.22222222222223" fill="#16213E"/><rect x="732.22" y="366.11" width="36.61" height="36.61" fill="#112f58"/><polygon points="732.22,366.11 768.83,366.11 768.83,402.72" fill="#152341"/><rect x="768.83" y="366.11" width="36.61" height="36.61" fill="#463075"/><polygon points="768.83,366.11 805.44,366.11 805.44,402.72" fill="#122d53"/><rect x="732.22" y="402.72" width="36.61" height="36.61" fill="#473075"/><polygon points="732.22,402.72 768.83,439.33000000000004 732.22,439.33000000000004" fill="#1d223f"/><rect x="768.83" y="402.72" width="36.61" height="36.61" fill="#342a5f"/><polygon points="768.83,402.72 805.44,439.33000000000004 768.83,439.33000000000004" fill="#7b324e"/><rect x="805.44" y="366.11" width="73.22" height="73.22" fill="#10315b"/><polygon points="805.44,366.11 878.6600000000001,439.33000000000004 805.44,439.33000000000004" fill="#103059"/><rect x="878.67" y="366.11" width="73.22" height="73.22" fill="#112f57"/><polygon points="878.67,366.11 951.89,439.33000000000004 878.67,439.33000000000004" fill="#cb405b"/><rect x="951.8888888888889" y="366.11111111111114" width="73.22222222222223" height="73.22222222222223" fill="#16213E"/><rect x="951.89" y="366.11" width="36.61" height="36.61" fill="#513380"/><polygon points="951.89,366.11 988.5,366.11 951.89,402.72" fill="#13294d"/><rect x="988.5" y="366.11" width="36.61" height="36.61" fill="#2e2542"/><polygon points="1025.11,366.11 1025.11,402.72 988.5,402.72" fill="#913652"/><rect x="951.89" y="402.72" width="36.61" height="36.61" fill="#10335d"/><polygon points="951.89,402.72 988.5,439.33000000000004 951.89,439.33000000000004" fill="#322a5e"/><rect x="988.5" y="402.72" width="36.61" height="36.61" fill="#113058"/><polygon points="988.5,402.72 1025.11,402.72 1025.11,439.33000000000004" fill="#73314d"/><rect x="1025.11" y="366.11" width="73.22" height="73.22" fill="#372b63"/><polygon points="1025.11,366.11 1098.33,439.33000000000004 1025.11,439.33000000000004" fill="#10325c"/><rect x="1098.3333333333335" y="366.11111111111114" width="73.22222222222223" height="73.22222222222223" fill="#16213E"/><rect x="1098.33" y="366.11" width="36.61" height="36.61" fill="#e0435f"/><polygon points="1098.33,366.11 1134.9399999999998,366.11 1098.33,402.72" fill="#bd3d59"/><rect x="1134.94" y="366.11" width="36.61" height="36.61" fill="#112f56"/><polygon points="1134.94,366.11 1171.55,402.72 1134.94,402.72" fill="#422f6f"/><rect x="1098.33" y="402.72" width="36.61" height="36.61" fill="#372b63"/><polygon points="1098.33,402.72 1134.9399999999998,402.72 1098.33,439.33000000000004" fill="#7c324e"/><rect x="1134.94" y="402.72" width="36.61" height="36.61" fill="#513381"/><polygon points="1134.94,402.72 1171.55,402.72 1134.94,439.33000000000004" fill="#2e2959"/><rect x="0" y="439.33" width="73.22" height="73.22" fill="#372b63"/><polygon points="0,439.33 73.22,512.55 0,512.55" fill="#e2445f"/><rect x="73.22222222222223" y="439.33333333333337" width="73.22222222222223" height="73.22222222222223" fill="#16213E"/><rect x="73.22" y="439.33" width="36.61" height="36.61" fill="#1b2243"/><polygon points="73.22,439.33 109.83,475.94 73.22,475.94" fill="#13294d"/><rect x="109.83" y="439.33" width="36.61" height="36.61" fill="#622e4a"/><polygon points="109.83,439.33 146.44,475.94 109.83,475.94" fill="#392c66"/><rect x="73.22" y="475.94" width="36.61" height="36.61" fill="#23254c"/><polygon points="109.83,475.94 109.83,512.55 73.22,512.55" fill="#523482"/><rect x="109.83" y="475.94" width="36.61" height="36.61" fill="#13284b"/><polygon points="146.44,475.94 146.44,512.55 109.83,512.55" fill="#af3b57"/><rect x="146.44" y="439.33" width="73.22" height="73.22" fill="#342a60"/><polygon points="146.44,439.33 219.66,439.33 219.66,512.55" fill="#10315a"/><rect x="219.66666666666669" y="439.33333333333337" width="73.22222222222223" height="73.22222222222223" fill="#16213E"/><rect x="219.67" y="439.33" width="36.61" height="36.61" fill="#382743"/><polygon points="219.67,439.33 256.28,439.33 256.28,475.94" fill="#3f2e6d"/><rect x="256.28" y="439.33" width="36.61" height="36.61" fill="#3b2c68"/><polygon points="256.28,439.33 292.89,439.33 256.28,475.94" fill="#1e2347"/><rect x="219.67" y="475.94" width="36.61" height="36.61" fill="#152545"/><polygon points="219.67,475.94 256.28,475.94 256.28,512.55" fill="#112e56"/><rect x="256.28" y="475.94" width="36.61" height="36.61" fill="#1b223f"/><polygon points="256.28,475.94 292.89,475.94 292.89,512.55" fill="#6e304c"/><rect x="292.8888888888889" y="439.33333333333337" width="73.22222222222223" height="73.22222222222223" fill="#16213E"/><rect x="292.89" y="439.33" width="36.61" height="36.61" fill="#4a3179"/><polygon points="329.5,439.33 329.5,475.94 292.89,475.94" fill="#a43955"/><rect x="329.5" y="439.33" width="36.61" height="36.61" fill="#152341"/><polygon points="329.5,439.33 366.11,439.33 329.5,475.94" fill="#112f57"/><rect x="292.89" y="475.94" width="36.61" height="36.61" fill="#132a4d"/><polygon points="292.89,475.94 329.5,475.94 329.5,512.55" fill="#392c65"/><rect x="329.5" y="475.94" width="36.61" height="36.61" fill="#3f2e6c"/><polygon points="329.5,475.94 366.11,475.94 366.11,512.55" fill="#9f3854"/><rect x="366.11" y="439.33" width="73.22" height="73.22" fill="#24254e"/><polygon points="439.33000000000004,439.33 439.33000000000004,512.55 366.11,512.55" fill="#973753"/><rect x="439.33" y="439.33" width="73.22" height="73.22" fill="#9d3854"/><polygon points="439.33,439.33 512.55,512.55 439.33,512.55" fill="#142748"/><rect x="512.5555555555557" y="439.33333333333337" width="73.22222222222223" height="73.22222222222223" fill="#16213E"/><rect x="512.56" y="439.33" width="36.61" height="36.61" fill="#122d54"/><polygon points="512.56,439.33 549.17,439.33 549.17,475.94" fill="#22254c"/><rect x="549.17" y="439.33" width="36.61" height="36.61" fill="#c53f5a"/><polygon points="585.78,439.33 585.78,475.94 549.17,475.94" fill="#392c65"/><rect x="512.56" y="475.94" width="36.61" height="36.61" fill="#c33e5a"/><polygon points="512.56,475.94 549.17,512.55 512.56,512.55" fill="#332643"/><rect x="549.17" y="475.94" width="36.61" height="36.61" fill="#30295b"/><polygon points="585.78,475.94 585.78,512.55 549.17,512.55" fill="#162240"/><rect x="585.78" y="439.33" width="73.22" height="73.22" fill="#432f71"/><polygon points="659,439.33 659,512.55 585.78,512.55" fill="#3c2d6a"/><rect x="659" y="439.33" width="73.22" height="73.22" fill="#112f57"/><polygon points="659,439.33 732.22,439.33 732.22,512.55" fill="#432f71"/><rect x="732.22" y="439.33" width="73.22" height="73.22" fill="#8d3551"/><polygon points="805.44,439.33 805.44,512.55 732.22,512.55" fill="#4d2a47"/><rect x="805.4444444444446" y="439.33333333333337" width="73.22222222222223" height="73.22222222222223" fill="#16213E"/><rect x="805.44" y="439.33" width="36.61" height="36.61" fill="#142748"/><polygon points="805.44,439.33 842.0500000000001,439.33 805.44,475.94" fill="#202449"/><rect x="842.06" y="439.33" width="36.61" height="36.61" fill="#152240"/><polygon points="878.67,439.33 878.67,475.94 842.06,475.94" fill="#572c49"/><rect x="805.44" y="475.94" width="36.61" height="36.61" fill="#22254b"/><polygon points="805.44,475.94 842.0500000000001,475.94 842.0500000000001,512.55" fill="#152544"/><rect x="842.06" y="475.94" width="36.61" height="36.61" fill="#112f57"/><polygon points="842.06,475.94 878.67,475.94 842.06,512.55" fill="#7f334f"/><rect x="878.67" y="439.33" width="73.22" height="73.22" fill="#523482"/><polygon points="951.89,439.33 951.89,512.55 878.67,512.55" fill="#372b63"/><rect x="951.8888888888889" y="439.33333333333337" width="73.22222222222223" height="73.22222222222223" fill="#16213E"/><rect x="951.89" y="439.33" width="36.61" height="36.61" fill="#412e6f"/><polygon points="988.5,439.33 988.5,475.94 951.89,475.94" fill="#682f4b"/><rect x="988.5" y="439.33" width="36.61" height="36.61" fill="#13294d"/><polygon points="988.5,439.33 1025.11,439.33 988.5,475.94" fill="#b93d58"/><rect x="951.89" y="475.94" width="36.61" height="36.61" fill="#3a2c67"/><polygon points="988.5,475.94 988.5,512.55 951.89,512.55" fill="#22254b"/><rect x="988.5" y="475.94" width="36.61" height="36.61" fill="#2e2859"/><polygon points="988.5,475.94 1025.11,475.94 988.5,512.55" fill="#c93f5b"/><rect x="1025.1111111111113" y="439.33333333333337" width="73.22222222222223" height="73.22222222222223" fill="#16213E"/><rect x="1025.11" y="439.33" width="36.61" height="36.61" fill="#ca405b"/><polygon points="1025.11,439.33 1061.7199999999998,439.33 1025.11,475.94" fill="#372b63"/><rect x="1061.72" y="439.33" width="36.61" height="36.61" fill="#352643"/><polygon points="1061.72,439.33 1098.33,475.94 1061.72,475.94" fill="#1a2242"/><rect x="1025.11" y="475.94" width="36.61" height="36.61" fill="#292753"/><polygon points="1025.11,475.94 1061.7199999999998,475.94 1061.7199999999998,512.55" fill="#80334f"/><rect x="1061.72" y="475.94" width="36.61" height="36.61" fill="#22254b"/><polygon points="1061.72,475.94 1098.33,475.94 1061.72,512.55" fill="#142748"/><rect x="1098.3333333333335" y="439.33333333333337" width="73.22222222222223" height="73.22222222222223" fill="#16213E"/><rect x="1098.33" y="439.33" width="36.61" height="36.61" fill="#152443"/><polygon points="1134.9399999999998,439.33 1134.9399999999998,475.94 1098.33,475.94" fill="#1f2448"/><rect x="1134.94" y="439.33" width="36.61" height="36.61" fill="#0f345f"/><polygon points="1171.55,439.33 1171.55,475.94 1134.94,475.94" fill="#112e55"/><rect x="1098.33" y="475.94" width="36.61" height="36.61" fill="#20244a"/><polygon points="1098.33,475.94 1134.9399999999998,512.55 1098.33,512.55" fill="#262650"/><rect x="1134.94" y="475.94" width="36.61" height="36.61" fill="#883450"/><polygon points="1134.94,475.94 1171.55,475.94 1171.55,512.55" fill="#112e55"/><rect x="0" y="512.5555555555557" width="73.22222222222223" height="73.22222222222223" fill="#16213E"/><rect x="0" y="512.56" width="36.61" height="36.61" fill="#8f3652"/><polygon points="0,512.56 36.61,549.17 0,549.17" fill="#c03e59"/><rect x="36.61" y="512.56" width="36.61" height="36.61" fill="#182140"/><polygon points="36.61,512.56 73.22,549.17 36.61,549.17" fill="#be3e59"/><rect x="0" y="549.17" width="36.61" height="36.61" fill="#75314d"/><polygon points="0,549.17 36.61,549.17 0,585.78" fill="#2f2542"/><rect x="36.61" y="549.17" width="36.61" height="36.61" fill="#2c2857"/><polygon points="36.61,549.17 73.22,549.17 36.61,585.78" fill="#14284a"/><rect x="73.22" y="512.56" width="73.22" height="73.22" fill="#382743"/><polygon points="73.22,512.56 146.44,512.56 73.22,585.78" fill="#152443"/><rect x="146.44" y="512.56" width="73.22" height="73.22" fill="#112d54"/><polygon points="219.66,512.56 219.66,585.78 146.44,585.78" fill="#c13e5a"/><rect x="219.67" y="512.56" width="73.22" height="73.22" fill="#8c3551"/><polygon points="219.67,512.56 292.89,512.56 219.67,585.78" fill="#0f335f"/><rect x="292.8888888888889" y="512.5555555555557" width="73.22222222222223" height="73.22222222222223" fill="#16213E"/><rect x="292.89" y="512.56" width="36.61" height="36.61" fill="#112f58"/><polygon points="292.89,512.56 329.5,549.17 292.89,549.17" fill="#142748"/><rect x="329.5" y="512.56" width="36.61" height="36.61" fill="#2e2542"/><polygon points="329.5,512.56 366.11,512.56 366.11,549.17" fill="#162240"/><rect x="292.89" y="549.17" width="36.61" height="36.61" fill="#142749"/><polygon points="292.89,549.17 329.5,549.17 292.89,585.78" fill="#863450"/><rect x="329.5" y="549.17" width="36.61" height="36.61" fill="#122b4f"/><polygon points="329.5,549.17 366.11,585.78 329.5,585.78" fill="#2a2754"/><rect x="366.11" y="512.56" width="73.22" height="73.22" fill="#112f57"/><polygon points="439.33000000000004,512.56 439.33000000000004,585.78 366.11,585.78" fill="#222340"/><rect x="439.33" y="512.56" width="73.22" height="73.22" fill="#152342"/><polygon points="439.33,512.56 512.55,585.78 439.33,585.78" fill="#7f334f"/><rect x="512.5555555555557" y="512.5555555555557" width="73.22222222222223" height="73.22222222222223" fill="#16213E"/><rect x="512.56" y="512.56" width="36.61" height="36.61" fill="#25264f"/><polygon points="549.17,512.56 549.17,549.17 512.56,549.17" fill="#923652"/><rect x="549.17" y="512.56" width="36.61" height="36.61" fill="#162240"/><polygon points="549.17,512.56 585.78,549.17 549.17,549.17" fill="#2d2858"/><rect x="512.56" y="549.17" width="36.61" height="36.61" fill="#4c327c"/><polygon points="549.17,549.17 549.17,585.78 512.56,585.78" fill="#6a2f4c"/><rect x="549.17" y="549.17" width="36.61" height="36.61" fill="#b93d58"/><polygon points="549.17,549.17 585.78,549.17 585.78,585.78" fill="#e64560"/><rect x="585.78" y="512.56" width="73.22" height="73.22" fill="#e4445f"/><polygon points="585.78,512.56 659,512.56 585.78,585.78" fill="#482946"/><rect x="659" y="512.56" width="73.22" height="73.22" fill="#10325c"/><polygon points="659,512.56 732.22,585.78 659,585.78" fill="#be3e59"/><rect x="732.2222222222223" y="512.5555555555557" width="73.22222222222223" height="73.22222222222223" fill="#16213E"/><rect x="732.22" y="512.56" width="36.61" height="36.61" fill="#493178"/><polygon points="732.22,512.56 768.83,512.56 732.22,549.17" fill="#7f334f"/><rect x="768.83" y="512.56" width="36.61" height="36.61" fill="#412f6f"/><polygon points="768.83,512.56 805.44,512.56 768.83,549.17" fill="#112e56"/><rect x="732.22" y="549.17" width="36.61" height="36.61" fill="#122c52"/><polygon points="768.83,549.17 768.83,585.78 732.22,585.78" fill="#272651"/><rect x="768.83" y="549.17" width="36.61" height="36.61" fill="#493178"/><polygon points="768.83,549.17 805.44,549.17 805.44,585.78" fill="#73314d"/><rect x="805.44" y="512.56" width="73.22" height="73.22" fill="#132a4e"/><polygon points="805.44,512.56 878.6600000000001,512.56 805.44,585.78" fill="#1b223f"/><rect x="878.6666666666667" y="512.5555555555557" width="73.22222222222223" height="73.22222222222223" fill="#16213E"/><rect x="878.67" y="512.56" width="36.61" height="36.61" fill="#3e2e6c"/><polygon points="878.67,512.56 915.28,512.56 915.28,549.17" fill="#e3445f"/><rect x="915.28" y="512.56" width="36.61" height="36.61" fill="#5f2e4a"/><polygon points="951.89,512.56 951.89,549.17 915.28,549.17" fill="#262650"/><rect x="878.67" y="549.17" width="36.61" height="36.61" fill="#4b317a"/><polygon points="915.28,549.17 915.28,585.78 878.67,585.78" fill="#282752"/><rect x="915.28" y="549.17" width="36.61" height="36.61" fill="#122b50"/><polygon points="915.28,549.17 951.89,549.17 915.28,585.78" fill="#13284b"/><rect x="951.89" y="512.56" width="73.22" height="73.22" fill="#112f58"/><polygon points="951.89,512.56 1025.11,585.78 951.89,585.78" fill="#8b3551"/><rect x="1025.11" y="512.56" width="73.22" height="73.22" fill="#0f335f"/><polygon points="1025.11,512.56 1098.33,512.56 1098.33,585.78" fill="#122c53"/><rect x="1098.3333333333335" y="512.5555555555557" width="73.22222222222223" height="73.22222222222223" fill="#16213E"/><rect x="1098.33" y="512.56" width="36.61" height="36.61" fill="#dd435e"/><polygon points="1098.33,512.56 1134.9399999999998,549.17 1098.33,549.17" fill="#0f3460"/><rect x="1134.94" y="512.56" width="36.61" height="36.61" fill="#132a4e"/><polygon points="1134.94,512.56 1171.55,549.17 1134.94,549.17" fill="#d4415d"/><rect x="1098.33" y="549.17" width="36.61" height="36.61" fill="#2e295a"/><polygon points="1098.33,549.17 1134.9399999999998,549.17 1134.9399999999998,585.78" fill="#c63f5a"/><rect x="1134.94" y="549.17" width="36.61" height="36.61" fill="#152342"/><polygon points="1134.94,549.17 1171.55,549.17 1171.55,585.78" fill="#0f335f"/><rect x="0" y="585.78" width="73.22" height="73.22" fill="#ae3b57"/><polygon points="0,585.78 73.22,659 0,659" fill="#ce405c"/><rect x="73.22222222222223" y="585.7777777777778" width="73.22222222222223" height="73.22222222222223" fill="#16213E"/><rect x="73.22" y="585.78" width="36.61" height="36.61" fill="#142646"/><polygon points="109.83,585.78 109.83,622.39 73.22,622.39" fill="#17213f"/><rect x="109.83" y="585.78" width="36.61" height="36.61" fill="#4a2a46"/><polygon points="146.44,585.78 146.44,622.39 109.83,622.39" fill="#122b50"/><rect x="73.22" y="622.39" width="36.61" height="36.61" fill="#422f70"/><polygon points="73.22,622.39 109.83,622.39 109.83,659" fill="#23254c"/><rect x="109.83" y="622.39" width="36.61" height="36.61" fill="#152341"/><polygon points="109.83,622.39 146.44,622.39 109.83,659" fill="#da425e"/><rect x="146.44" y="585.78" width="73.22" height="73.22" fill="#202449"/><polygon points="219.66,585.78 219.66,659 146.44,659" fill="#b63c58"/><rect x="219.66666666666669" y="585.7777777777778" width="73.22222222222223" height="73.22222222222223" fill="#16213E"/><rect x="219.67" y="585.78" width="36.61" height="36.61" fill="#122d53"/><polygon points="219.67,585.78 256.28,622.39 219.67,622.39" fill="#142749"/><rect x="256.28" y="585.78" width="36.61" height="36.61" fill="#5a2d49"/><polygon points="256.28,585.78 292.89,585.78 292.89,622.39" fill="#be3e59"/><rect x="219.67" y="622.39" width="36.61" height="36.61" fill="#112e56"/><polygon points="219.67,622.39 256.28,622.39 219.67,659" fill="#122c51"/><rect x="256.28" y="622.39" width="36.61" height="36.61" fill="#472946"/><polygon points="256.28,622.39 292.89,622.39 292.89,659" fill="#292441"/><rect x="292.89" y="585.78" width="73.22" height="73.22" fill="#463075"/><polygon points="366.11,585.78 366.11,659 292.89,659" fill="#7e334f"/><rect x="366.11" y="585.78" width="73.22" height="73.22" fill="#9b3853"/><polygon points="366.11,585.78 439.33000000000004,585.78 366.11,659" fill="#31295d"/><rect x="439.33" y="585.78" width="73.22" height="73.22" fill="#1c2344"/><polygon points="439.33,585.78 512.55,585.78 512.55,659" fill="#292753"/><rect x="512.56" y="585.78" width="73.22" height="73.22" fill="#122d53"/><polygon points="512.56,585.78 585.78,659 512.56,659" fill="#3f2e6d"/><rect x="585.7777777777778" y="585.7777777777778" width="73.22222222222223" height="73.22222222222223" fill="#16213E"/><rect x="585.78" y="585.78" width="36.61" height="36.61" fill="#16213e"/><polygon points="585.78,585.78 622.39,622.39 585.78,622.39" fill="#642e4b"/><rect x="622.39" y="585.78" width="36.61" height="36.61" fill="#13294c"/><polygon points="622.39,585.78 659,585.78 622.39,622.39" fill="#112f57"/><rect x="585.78" y="622.39" width="36.61" height="36.61" fill="#652e4b"/><polygon points="585.78,622.39 622.39,659 585.78,659" fill="#533483"/><rect x="622.39" y="622.39" width="36.61" height="36.61" fill="#923652"/><polygon points="622.39,622.39 659,622.39 659,659" fill="#ac3b56"/><rect x="659" y="585.78" width="73.22" height="73.22" fill="#142748"/><polygon points="732.22,585.78 732.22,659 659,659" fill="#1f2448"/><rect x="732.22" y="585.78" width="73.22" height="73.22" fill="#13294c"/><polygon points="732.22,585.78 805.44,585.78 732.22,659" fill="#122b51"/><rect x="805.44" y="585.78" width="73.22" height="73.22" fill="#122c51"/><polygon points="805.44,585.78 878.6600000000001,585.78 878.6600000000001,659" fill="#152342"/><rect x="878.67" y="585.78" width="73.22" height="73.22" fill="#502b47"/><polygon points="878.67,585.78 951.89,659 878.67,659" fill="#e0435f"/><rect x="951.89" y="585.78" width="73.22" height="73.22" fill="#4c327b"/><polygon points="951.89,585.78 1025.11,585.78 951.89,659" fill="#332a5f"/><rect x="1025.1111111111113" y="585.7777777777778" width="73.22222222222223" height="73.22222222222223" fill="#16213E"/><rect x="1025.11" y="585.78" width="36.61" height="36.61" fill="#4d327d"/><polygon points="1061.7199999999998,585.78 1061.7199999999998,622.39 1025.11,622.39" fill="#402e6d"/><rect x="1061.72" y="585.78" width="36.61" height="36.61" fill="#13294c"/><polygon points="1061.72,585.78 1098.33,585.78 1098.33,622.39" fill="#833450"/><rect x="1025.11" y="622.39" width="36.61" height="36.61" fill="#103059"/><polygon points="1025.11,622.39 1061.7199999999998,622.39 1025.11,659" fill="#112f56"/><rect x="1061.72" y="622.39" width="36.61" height="36.61" fill="#e1445f"/><polygon points="1061.72,622.39 1098.33,622.39 1098.33,659" fill="#122d53"/><rect x="1098.33" y="585.78" width="73.22" height="73.22" fill="#5d2d49"/><polygon points="1171.55,585.78 1171.55,659 1098.33,659" fill="#b93d58"/></g></svg>